# xmcd
#
# Track frame offsets: 
#        182
#        17015
#        36710
#        48667
#        64965
#        79995
#        115605
#        133712
#        150212
#        161847
#        174387
#        196192
#        210072
#        226555
#        241367
#
# Disc length: 3456 seconds
#
# Revision: 0
# Processed by: cddbd v1.5.2PL0 Copyright (c) Steve Scherf et al.
# Submitted via: ExactAudioCopy v0.95b4
#
DISCID=bb0d7e0f
DTITLE=Various Artist - Bresil Maravilha
DYEAR=1989
DGENRE=Latin
TTITLE0=Marcos Valle - Samba De Verao
TTITLE1=Joycew and Maria Bethania - Tarde Em Itapoan
TTITLE2=Zimbo Trio - Ponteio
TTITLE3=Milton Nascimento - Outumbro
TTITLE4=A.C. Jobim - Vai Levando
TTITLE5=Fio Maravilha and Pais Tropical - Taj Majal
TTITLE6=Toquinho and Vinicius - A Tonga De Mironga Do Kabulete
TTITLE7=Fafa De Belem - Aprentizes Da Esperanca
TTITLE8=Francis Hime - Trocando Em Miudo
TTITLE9=Luis Gonzaga - Aza Branca
TTITLE10=Maria Creuza - Catende
TTITLE11=Geraldo Vandre - Rosa Flor
TTITLE12=Cesar Camargo Mariano - Nos Bailes Da Vida
TTITLE13=Morales Moreira - La Vem O Brasil Descendo A Ladeira
TTITLE14=Martinho Da Villa - Poligamo Fiel
EXTD=
EXTT0=
EXTT1=
EXTT2=
EXTT3=
EXTT4=
EXTT5=
EXTT6=
EXTT7=
EXTT8=
EXTT9=
EXTT10=
EXTT11=
EXTT12=
EXTT13=
EXTT14=
PLAYORDER=
